<svg xmlns="http://www.w3.org/2000/svg" x="0px" y="0px" width="100" height="100" viewBox="0 0 48 48">
<path d="M 24 10 C 17.72 10 12.551969 14.85 12.042969 21 L 11.5 21 C 6.813 21 3 24.813 3 29.5 C 3 34.187 6.813 38 11.5 38 L 16.634766 38 C 16.225766 37.417 16 36.727 16 36 C 16 35.654 16.066109 35.322 16.162109 35 L 11.5 35 C 8.467 35 6 32.533 6 29.5 C 6 26.467 8.467 24 11.5 24 L 13.5 24 C 14.329 24 15 23.329 15 22.5 L 15 22 C 15 17.038 19.038 13 24 13 C 28.962 13 33 17.038 33 22 L 33 22.5 C 33 23.329 33.671 24 34.5 24 L 36.5 24 C 39.533 24 42 26.467 42 29.5 C 42 32.533 39.533 35 36.5 35 L 31.837891 35 C 31.933891 35.322 32 35.654 32 36 C 32 36.727 31.774234 37.417 31.365234 38 L 36.5 38 C 41.187 38 45 34.187 45 29.5 C 45 24.813 41.187 21 36.5 21 L 35.957031 21 C 35.448031 14.85 30.28 10 24 10 z M 23.976562 23.978516 A 1.50015 1.50015 0 0 0 22.5 25.5 L 22.5 36.878906 L 20.560547 34.939453 A 1.50015 1.50015 0 1 0 18.439453 37.060547 L 22.810547 41.431641 A 1.50015 1.50015 0 0 0 25.197266 41.423828 L 29.560547 37.060547 A 1.50015 1.50015 0 1 0 27.439453 34.939453 L 25.5 36.878906 L 25.5 25.5 A 1.50015 1.50015 0 0 0 23.976562 23.978516 z"></path>
</svg>
